<?xml version="1.0" encoding="UTF-8"?>
<svg xmlns="http://www.w3.org/2000/svg" xmlns:xlink="http://www.w3.org/1999/xlink" version="1.1" width="369" height="80">
    <defs id="SvgjsDefs1195"></defs>
    <g id="SvgjsG1196" featurekey="root" fill="#4680ff"></g>
    <g id="SvgjsG1197" featurekey="text1" fill="#ffffff" transform="matrix(4.010694921263863,0,0,4.010694921263863,-6.4973234010114815,-10.053474606319316)">
        <path d="M15.24 5 c0.38 0 0.7 0.32 0.7 0.7 l0 13.28 c0 0.38 -0.32 0.7 -0.7 0.7 l-1.5 0 c-0.38 0 -0.7 -0.32 -0.7 -0.7 l0 -8.96 l-3.68 4.72 c-0.12 0.16 -0.32 0.26 -0.54 0.26 l0 0 c-0.22 0 -0.42 -0.1 -0.54 -0.26 l-3.76 -4.74 l0 8.98 c0 0.38 -0.32 0.7 -0.7 0.7 l-1.5 0 c-0.38 0 -0.7 -0.32 -0.7 -0.7 l0 -13.28 c0 -0.38 0.32 -0.7 0.7 -0.7 l1.74 0 c0.22 0 0.42 0.1 0.56 0.28 l4.2 5.56 l4.12 -5.56 c0.12 -0.18 0.34 -0.28 0.56 -0.28 l1.74 0 z M32.339999999999996 18.86 c0.1 0.22 0.06 0.46 -0.06 0.66 c-0.14 0.2 -0.36 0.32 -0.58 0.32 l-13.32 0 c-0.24 0 -0.46 -0.12 -0.58 -0.32 c-0.14 -0.2 -0.16 -0.44 -0.06 -0.66 l0.62 -1.46 c0.1 -0.26 0.36 -0.44 0.64 -0.44 l9.32 0 l-0.6 -1.44 l-2.68 -6.4 l-2.68 6.4 c-0.1 0.26 -0.36 0.42 -0.64 0.42 l-1.68 0 c-0.24 0 -0.46 -0.12 -0.6 -0.32 c-0.12 -0.18 -0.14 -0.44 -0.06 -0.66 l4.06 -9.52 c0.1 -0.28 0.36 -0.44 0.64 -0.44 l1.92 0 c0.28 0 0.52 0.16 0.64 0.44 z M36.32 5 c0.38 0 0.7 0.32 0.7 0.7 l0 13.28 c0 0.38 -0.32 0.7 -0.7 0.7 l-1.5 0 c-0.38 0 -0.7 -0.32 -0.7 -0.7 l0 -13.28 c0 -0.38 0.32 -0.7 0.7 -0.7 l1.5 0 z M49.7 16.84 c0.4 0 0.7 0.32 0.7 0.7 l0 1.44 c0 0.38 -0.3 0.7 -0.7 0.7 l-8.74 0 c-0.38 0 -0.7 -0.32 -0.7 -0.7 l0 -13.28 c0 -0.38 0.32 -0.7 0.7 -0.7 l1.5 0 c0.38 0 0.7 0.32 0.7 0.7 l0 11.14 l6.54 0 z M62.92 16.96 c0.4 0 0.7 0.32 0.7 0.72 l0 1.46 c0 0.38 -0.3 0.7 -0.7 0.7 l-9.88 0 c-0.38 0 -0.7 -0.32 -0.7 -0.7 l0 -1.46 c0 -0.4 0.32 -0.72 0.7 -0.72 l9.88 0 z M53.04 13.86 c-0.38 0 -0.7 -0.32 -0.7 -0.7 l0 -1.5 c0 -0.38 0.32 -0.7 0.7 -0.7 l8.98 0 c0.4 0 0.72 0.32 0.72 0.7 l0 1.5 c0 0.38 -0.32 0.7 -0.72 0.7 l-8.98 0 z M62.92 5 c0.4 0 0.7 0.32 0.7 0.7 l0 1.46 c0 0.4 -0.3 0.72 -0.7 0.72 l-9.88 0 c-0.38 0 -0.7 -0.32 -0.7 -0.72 l0 -1.46 c0 -0.38 0.32 -0.7 0.7 -0.7 l9.88 0 z M75.46000000000001 14.02 l2.98 4.58 c0.14 0.22 0.14 0.5 0.02 0.72 s-0.36 0.36 -0.6 0.36 l-1.8 0 c-0.24 0 -0.46 -0.12 -0.58 -0.32 l-3 -4.78 l-3.54 0 l0 4.4 c0 0.38 -0.32 0.7 -0.7 0.7 l-1.5 0 c-0.38 0 -0.7 -0.32 -0.7 -0.7 l0 -13.28 c0 -0.38 0.32 -0.7 0.7 -0.7 l6.36 0 c1.52 0 2.78 0.44 3.72 1.3 c0.96 0.88 1.44 2.06 1.44 3.56 c0 1.92 -0.86 3.32 -2.48 4.02 c-0.1 0.06 -0.22 0.1 -0.32 0.14 z M68.94 7.82 l0 3.94 l3.9 0 c1.16 0 1.92 -0.32 2.34 -0.98 c0.12 -0.22 0.2 -0.54 0.2 -0.92 c0 -0.66 -0.2 -1.12 -0.62 -1.48 c-0.46 -0.38 -1.06 -0.56 -1.84 -0.56 l-3.98 0 z M93.46000000000001 5.380000000000001 c0.14 0.24 0.12 0.52 -0.04 0.74 l-5.54 8 l0 5.14 c0 0.38 -0.32 0.7 -0.7 0.7 l-1.54 0 c-0.4 0 -0.72 -0.32 -0.72 -0.7 l0 -5.86 c0 -0.14 0.06 -0.28 0.14 -0.4 l5.34 -7.7 c0.12 -0.18 0.34 -0.3 0.58 -0.3 l1.86 0 c0.26 0 0.5 0.14 0.62 0.38 z M85.04 9.78 c-0.12 0.24 -0.36 0.38 -0.62 0.38 l-1.86 0 c-0.24 0 -0.46 -0.12 -0.6 -0.3 l-2.6 -3.74 c-0.14 -0.22 -0.16 -0.5 -0.04 -0.74 s0.36 -0.38 0.62 -0.38 l1.88 0 c0.22 0 0.44 0.12 0.58 0.3 l2.6 3.74 c0.14 0.22 0.16 0.5 0.04 0.74 z"></path>
    </g>
</svg>